<mxfile host="app.diagrams.net" modified="2020-10-26T09:41:00.146Z" agent="5.0 (Windows NT 10.0; Win64; x64) AppleWebKit/537.36 (KHTML, like Gecko) Chrome/88.0.4298.5 Safari/537.36" etag="wTM-DoEiipOhkFNBZ0cr" version="13.8.2" type="github">
  <diagram id="kgpKYQtTHZ0yAKxKKP6v" name="Page-1">
    <mxGraphModel dx="1422" dy="762" grid="1" gridSize="10" guides="1" tooltips="1" connect="1" arrows="1" fold="1" page="1" pageScale="1" pageWidth="583" pageHeight="827" math="0" shadow="0">
      <root>
        <mxCell id="0" />
        <mxCell id="1" parent="0" />
        <mxCell id="bs9VvFrtfqqxm3IwWi3V-1" value="" style="shape=umlLifeline;participant=umlActor;perimeter=lifelinePerimeter;whiteSpace=wrap;html=1;container=1;collapsible=0;recursiveResize=0;verticalAlign=top;spacingTop=36;outlineConnect=0;" parent="1" vertex="1">
          <mxGeometry x="60" y="50" width="20" height="1160" as="geometry" />
        </mxCell>
        <mxCell id="bs9VvFrtfqqxm3IwWi3V-2" value="" style="html=1;points=[];perimeter=orthogonalPerimeter;" parent="bs9VvFrtfqqxm3IwWi3V-1" vertex="1">
          <mxGeometry x="5" y="40" width="10" height="1120" as="geometry" />
        </mxCell>
        <mxCell id="bs9VvFrtfqqxm3IwWi3V-3" value="" style="shape=umlLifeline;participant=umlBoundary;perimeter=lifelinePerimeter;whiteSpace=wrap;html=1;container=1;collapsible=0;recursiveResize=0;verticalAlign=top;spacingTop=36;outlineConnect=0;" parent="1" vertex="1">
          <mxGeometry x="220" y="50" width="50" height="1190" as="geometry" />
        </mxCell>
        <mxCell id="bs9VvFrtfqqxm3IwWi3V-4" value="" style="html=1;points=[];perimeter=orthogonalPerimeter;" parent="bs9VvFrtfqqxm3IwWi3V-3" vertex="1">
          <mxGeometry x="20" y="60" width="10" height="1070" as="geometry" />
        </mxCell>
        <mxCell id="bs9VvFrtfqqxm3IwWi3V-5" value="Program.Main" style="text;html=1;align=center;verticalAlign=middle;resizable=0;points=[];autosize=1;" parent="1" vertex="1">
          <mxGeometry x="200" y="20" width="90" height="20" as="geometry" />
        </mxCell>
        <mxCell id="ZdvCy4sVPoSEvoV_0ICH-1" value="Pavlo: User" style="text;html=1;align=center;verticalAlign=middle;resizable=0;points=[];autosize=1;" parent="1" vertex="1">
          <mxGeometry x="30" y="20" width="80" height="20" as="geometry" />
        </mxCell>
        <mxCell id="ZdvCy4sVPoSEvoV_0ICH-2" value="Run program" style="html=1;verticalAlign=bottom;startArrow=circle;startFill=1;endArrow=open;startSize=6;endSize=8;" parent="1" target="bs9VvFrtfqqxm3IwWi3V-3" edge="1">
          <mxGeometry width="80" relative="1" as="geometry">
            <mxPoint x="70" y="130" as="sourcePoint" />
            <mxPoint x="150" y="130" as="targetPoint" />
          </mxGeometry>
        </mxCell>
        <mxCell id="ZdvCy4sVPoSEvoV_0ICH-3" value="" style="shape=umlLifeline;participant=umlControl;perimeter=lifelinePerimeter;whiteSpace=wrap;html=1;container=1;collapsible=0;recursiveResize=0;verticalAlign=top;spacingTop=36;outlineConnect=0;" parent="1" vertex="1">
          <mxGeometry x="390" y="50" width="40" height="1150" as="geometry" />
        </mxCell>
        <mxCell id="ZdvCy4sVPoSEvoV_0ICH-5" value="" style="html=1;points=[];perimeter=orthogonalPerimeter;" parent="ZdvCy4sVPoSEvoV_0ICH-3" vertex="1">
          <mxGeometry x="15" y="70" width="10" height="1050" as="geometry" />
        </mxCell>
        <mxCell id="ZdvCy4sVPoSEvoV_0ICH-31" value="" style="html=1;points=[];perimeter=orthogonalPerimeter;" parent="ZdvCy4sVPoSEvoV_0ICH-3" vertex="1">
          <mxGeometry x="20" y="570" width="10" height="20" as="geometry" />
        </mxCell>
        <mxCell id="ZdvCy4sVPoSEvoV_0ICH-32" value="AddARow(int i)" style="edgeStyle=orthogonalEdgeStyle;html=1;align=left;spacingLeft=2;endArrow=block;rounded=0;entryX=1;entryY=0;" parent="ZdvCy4sVPoSEvoV_0ICH-3" target="ZdvCy4sVPoSEvoV_0ICH-31" edge="1">
          <mxGeometry relative="1" as="geometry">
            <mxPoint x="20" y="550" as="sourcePoint" />
            <Array as="points">
              <mxPoint x="45" y="550" />
            </Array>
          </mxGeometry>
        </mxCell>
        <mxCell id="ZdvCy4sVPoSEvoV_0ICH-4" value="Form1 :&amp;nbsp; Form" style="text;html=1;align=center;verticalAlign=middle;resizable=0;points=[];autosize=1;" parent="1" vertex="1">
          <mxGeometry x="365" y="20" width="90" height="20" as="geometry" />
        </mxCell>
        <mxCell id="ZdvCy4sVPoSEvoV_0ICH-6" value="Run(new Form1())" style="html=1;verticalAlign=bottom;startArrow=oval;startFill=1;endArrow=block;startSize=8;" parent="1" target="ZdvCy4sVPoSEvoV_0ICH-3" edge="1">
          <mxGeometry width="60" relative="1" as="geometry">
            <mxPoint x="250" y="150" as="sourcePoint" />
            <mxPoint x="310" y="150" as="targetPoint" />
          </mxGeometry>
        </mxCell>
        <mxCell id="ZdvCy4sVPoSEvoV_0ICH-9" value="CreateTableBtn_Click(sender, e)" style="html=1;verticalAlign=bottom;startArrow=oval;startFill=1;endArrow=block;startSize=8;" parent="1" source="bs9VvFrtfqqxm3IwWi3V-1" edge="1">
          <mxGeometry width="60" relative="1" as="geometry">
            <mxPoint x="80" y="240" as="sourcePoint" />
            <mxPoint x="415" y="265" as="targetPoint" />
          </mxGeometry>
        </mxCell>
        <mxCell id="ZdvCy4sVPoSEvoV_0ICH-11" value="" style="shape=umlLifeline;participant=umlEntity;perimeter=lifelinePerimeter;whiteSpace=wrap;html=1;container=1;collapsible=0;recursiveResize=0;verticalAlign=top;spacingTop=36;outlineConnect=0;" parent="1" vertex="1">
          <mxGeometry x="620" y="50" width="40" height="1240" as="geometry" />
        </mxCell>
        <mxCell id="ZdvCy4sVPoSEvoV_0ICH-12" value="" style="html=1;points=[];perimeter=orthogonalPerimeter;" parent="ZdvCy4sVPoSEvoV_0ICH-11" vertex="1">
          <mxGeometry x="15" y="130" width="10" height="980" as="geometry" />
        </mxCell>
        <mxCell id="ZdvCy4sVPoSEvoV_0ICH-13" value="Table : DataGridView" style="text;html=1;align=center;verticalAlign=middle;resizable=0;points=[];autosize=1;" parent="1" vertex="1">
          <mxGeometry x="570" y="20" width="130" height="20" as="geometry" />
        </mxCell>
        <mxCell id="ZdvCy4sVPoSEvoV_0ICH-14" value="InitializeDataGridView(15, 25)" style="html=1;verticalAlign=bottom;startArrow=oval;startFill=1;endArrow=block;startSize=8;" parent="1" target="ZdvCy4sVPoSEvoV_0ICH-11" edge="1">
          <mxGeometry width="60" relative="1" as="geometry">
            <mxPoint x="420" y="190" as="sourcePoint" />
            <mxPoint x="480" y="190" as="targetPoint" />
          </mxGeometry>
        </mxCell>
        <mxCell id="ZdvCy4sVPoSEvoV_0ICH-16" value="InitializeDataGridView(rows, cols)" style="html=1;verticalAlign=bottom;startArrow=oval;startFill=1;endArrow=block;startSize=8;" parent="1" target="ZdvCy4sVPoSEvoV_0ICH-11" edge="1">
          <mxGeometry width="60" relative="1" as="geometry">
            <mxPoint x="416" y="290" as="sourcePoint" />
            <mxPoint x="579.5" y="190" as="targetPoint" />
            <Array as="points">
              <mxPoint x="500" y="290" />
              <mxPoint x="510" y="290" />
            </Array>
          </mxGeometry>
        </mxCell>
        <mxCell id="ZdvCy4sVPoSEvoV_0ICH-17" value="Table.CellClick" style="html=1;verticalAlign=bottom;startArrow=oval;startFill=1;endArrow=block;startSize=8;" parent="1" target="ZdvCy4sVPoSEvoV_0ICH-3" edge="1">
          <mxGeometry width="60" relative="1" as="geometry">
            <mxPoint x="80" y="330" as="sourcePoint" />
            <mxPoint x="140" y="330" as="targetPoint" />
          </mxGeometry>
        </mxCell>
        <mxCell id="ZdvCy4sVPoSEvoV_0ICH-18" value="CellEditText" style="html=1;verticalAlign=bottom;startArrow=oval;startFill=1;endArrow=block;startSize=8;" parent="1" target="ZdvCy4sVPoSEvoV_0ICH-3" edge="1">
          <mxGeometry width="60" relative="1" as="geometry">
            <mxPoint x="80" y="370" as="sourcePoint" />
            <mxPoint x="140" y="370" as="targetPoint" />
          </mxGeometry>
        </mxCell>
        <mxCell id="ZdvCy4sVPoSEvoV_0ICH-19" value="" style="shape=umlLifeline;participant=umlEntity;perimeter=lifelinePerimeter;whiteSpace=wrap;html=1;container=1;collapsible=0;recursiveResize=0;verticalAlign=top;spacingTop=36;outlineConnect=0;" parent="1" vertex="1">
          <mxGeometry x="785" y="60" width="40" height="1200" as="geometry" />
        </mxCell>
        <mxCell id="ZdvCy4sVPoSEvoV_0ICH-20" value="" style="html=1;points=[];perimeter=orthogonalPerimeter;" parent="ZdvCy4sVPoSEvoV_0ICH-19" vertex="1">
          <mxGeometry x="15" y="350" width="10" height="220" as="geometry" />
        </mxCell>
        <mxCell id="ZdvCy4sVPoSEvoV_0ICH-21" value="CurrentCell : Cell" style="text;html=1;align=center;verticalAlign=middle;resizable=0;points=[];autosize=1;" parent="1" vertex="1">
          <mxGeometry x="750" y="20" width="110" height="20" as="geometry" />
        </mxCell>
        <mxCell id="ZdvCy4sVPoSEvoV_0ICH-25" value="UpdateBtn_Click" style="html=1;verticalAlign=bottom;startArrow=oval;startFill=1;endArrow=block;startSize=8;" parent="1" target="ZdvCy4sVPoSEvoV_0ICH-3" edge="1">
          <mxGeometry width="60" relative="1" as="geometry">
            <mxPoint x="80" y="410" as="sourcePoint" />
            <mxPoint x="140" y="410" as="targetPoint" />
          </mxGeometry>
        </mxCell>
        <mxCell id="ZdvCy4sVPoSEvoV_0ICH-26" value="new Cell(...)" style="html=1;verticalAlign=bottom;startArrow=oval;startFill=1;endArrow=block;startSize=8;" parent="1" target="ZdvCy4sVPoSEvoV_0ICH-19" edge="1">
          <mxGeometry width="60" relative="1" as="geometry">
            <mxPoint x="420" y="430" as="sourcePoint" />
            <mxPoint x="480" y="430" as="targetPoint" />
          </mxGeometry>
        </mxCell>
        <mxCell id="ZdvCy4sVPoSEvoV_0ICH-27" value="return Table" style="html=1;verticalAlign=bottom;endArrow=open;dashed=1;endSize=8;" parent="1" source="ZdvCy4sVPoSEvoV_0ICH-11" target="ZdvCy4sVPoSEvoV_0ICH-3" edge="1">
          <mxGeometry x="-0.0028" relative="1" as="geometry">
            <mxPoint x="590" y="320" as="sourcePoint" />
            <mxPoint x="510" y="320" as="targetPoint" />
            <Array as="points">
              <mxPoint x="510" y="310" />
            </Array>
            <mxPoint as="offset" />
          </mxGeometry>
        </mxCell>
        <mxCell id="ZdvCy4sVPoSEvoV_0ICH-30" value="AddRow_Click" style="html=1;verticalAlign=bottom;startArrow=oval;startFill=1;endArrow=block;startSize=8;" parent="1" edge="1">
          <mxGeometry width="60" relative="1" as="geometry">
            <mxPoint x="80.25" y="590" as="sourcePoint" />
            <mxPoint x="409.75" y="590" as="targetPoint" />
          </mxGeometry>
        </mxCell>
        <mxCell id="ZdvCy4sVPoSEvoV_0ICH-33" value="" style="html=1;points=[];perimeter=orthogonalPerimeter;" parent="1" vertex="1">
          <mxGeometry x="409.75" y="690" width="10" height="20" as="geometry" />
        </mxCell>
        <mxCell id="ZdvCy4sVPoSEvoV_0ICH-34" value="AddAColumn(int i)" style="edgeStyle=orthogonalEdgeStyle;html=1;align=left;spacingLeft=2;endArrow=block;rounded=0;entryX=1;entryY=0;" parent="1" target="ZdvCy4sVPoSEvoV_0ICH-33" edge="1">
          <mxGeometry relative="1" as="geometry">
            <mxPoint x="409.75" y="670" as="sourcePoint" />
            <Array as="points">
              <mxPoint x="434.75" y="670" />
            </Array>
          </mxGeometry>
        </mxCell>
        <mxCell id="ZdvCy4sVPoSEvoV_0ICH-35" value="AddColumn_Click" style="html=1;verticalAlign=bottom;startArrow=oval;startFill=1;endArrow=block;startSize=8;" parent="1" edge="1">
          <mxGeometry width="60" relative="1" as="geometry">
            <mxPoint x="80" y="660" as="sourcePoint" />
            <mxPoint x="409.5" y="660" as="targetPoint" />
          </mxGeometry>
        </mxCell>
        <mxCell id="ZdvCy4sVPoSEvoV_0ICH-36" value="" style="html=1;points=[];perimeter=orthogonalPerimeter;" parent="1" vertex="1">
          <mxGeometry x="409.75" y="760" width="10" height="20" as="geometry" />
        </mxCell>
        <mxCell id="ZdvCy4sVPoSEvoV_0ICH-37" value="RemoveAt(Table.Rows.Count -2)" style="edgeStyle=orthogonalEdgeStyle;html=1;align=left;spacingLeft=2;endArrow=block;rounded=0;entryX=1;entryY=0;" parent="1" target="ZdvCy4sVPoSEvoV_0ICH-36" edge="1">
          <mxGeometry relative="1" as="geometry">
            <mxPoint x="409.75" y="740" as="sourcePoint" />
            <Array as="points">
              <mxPoint x="434.75" y="740" />
            </Array>
          </mxGeometry>
        </mxCell>
        <mxCell id="ZdvCy4sVPoSEvoV_0ICH-38" value="DeleteRow_Click" style="html=1;verticalAlign=bottom;startArrow=oval;startFill=1;endArrow=block;startSize=8;" parent="1" edge="1">
          <mxGeometry width="60" relative="1" as="geometry">
            <mxPoint x="80" y="730" as="sourcePoint" />
            <mxPoint x="409.5" y="730" as="targetPoint" />
          </mxGeometry>
        </mxCell>
        <mxCell id="ZdvCy4sVPoSEvoV_0ICH-39" value="" style="html=1;points=[];perimeter=orthogonalPerimeter;" parent="1" vertex="1">
          <mxGeometry x="409.75" y="820" width="10" height="20" as="geometry" />
        </mxCell>
        <mxCell id="ZdvCy4sVPoSEvoV_0ICH-40" value="RemoveAt(Table.Columns.Count-1)" style="edgeStyle=orthogonalEdgeStyle;html=1;align=left;spacingLeft=2;endArrow=block;rounded=0;entryX=1;entryY=0;" parent="1" target="ZdvCy4sVPoSEvoV_0ICH-39" edge="1">
          <mxGeometry relative="1" as="geometry">
            <mxPoint x="409.75" y="800" as="sourcePoint" />
            <Array as="points">
              <mxPoint x="434.75" y="800" />
            </Array>
          </mxGeometry>
        </mxCell>
        <mxCell id="ZdvCy4sVPoSEvoV_0ICH-41" value="DeleteColumn_Click" style="html=1;verticalAlign=bottom;startArrow=oval;startFill=1;endArrow=block;startSize=8;" parent="1" edge="1">
          <mxGeometry width="60" relative="1" as="geometry">
            <mxPoint x="80" y="790" as="sourcePoint" />
            <mxPoint x="409.5" y="790" as="targetPoint" />
          </mxGeometry>
        </mxCell>
        <mxCell id="ZdvCy4sVPoSEvoV_0ICH-42" value="Table.Rows.Add(arow)" style="html=1;verticalAlign=bottom;startArrow=oval;startFill=1;endArrow=block;startSize=8;" parent="1" target="ZdvCy4sVPoSEvoV_0ICH-12" edge="1">
          <mxGeometry width="60" relative="1" as="geometry">
            <mxPoint x="409.75" y="649.5" as="sourcePoint" />
            <mxPoint x="469.75" y="649.5" as="targetPoint" />
          </mxGeometry>
        </mxCell>
        <mxCell id="ZdvCy4sVPoSEvoV_0ICH-43" value="Table.Columns.Add(acolumn)" style="html=1;verticalAlign=bottom;startArrow=oval;startFill=1;endArrow=block;startSize=8;entryX=0;entryY=0.689;entryDx=0;entryDy=0;entryPerimeter=0;" parent="1" edge="1">
          <mxGeometry width="60" relative="1" as="geometry">
            <mxPoint x="409.75" y="720" as="sourcePoint" />
            <mxPoint x="635" y="722.4649999999999" as="targetPoint" />
          </mxGeometry>
        </mxCell>
        <mxCell id="ZdvCy4sVPoSEvoV_0ICH-44" value="Table.Columns.Add(acolumn)" style="html=1;verticalAlign=bottom;startArrow=oval;startFill=1;endArrow=block;startSize=8;entryX=0;entryY=0.689;entryDx=0;entryDy=0;entryPerimeter=0;" parent="1" edge="1">
          <mxGeometry width="60" relative="1" as="geometry">
            <mxPoint x="409.75" y="780" as="sourcePoint" />
            <mxPoint x="635" y="782.4649999999999" as="targetPoint" />
          </mxGeometry>
        </mxCell>
        <mxCell id="ZdvCy4sVPoSEvoV_0ICH-45" value="Table.Columns.Add(acolumn)" style="html=1;verticalAlign=bottom;startArrow=oval;startFill=1;endArrow=block;startSize=8;entryX=0;entryY=0.689;entryDx=0;entryDy=0;entryPerimeter=0;" parent="1" edge="1">
          <mxGeometry width="60" relative="1" as="geometry">
            <mxPoint x="409.75" y="850" as="sourcePoint" />
            <mxPoint x="635" y="852.4649999999999" as="targetPoint" />
          </mxGeometry>
        </mxCell>
        <mxCell id="ZdvCy4sVPoSEvoV_0ICH-46" value="ExportBtn_Click" style="html=1;verticalAlign=bottom;startArrow=oval;startFill=1;endArrow=block;startSize=8;" parent="1" edge="1">
          <mxGeometry width="60" relative="1" as="geometry">
            <mxPoint x="80" y="920" as="sourcePoint" />
            <mxPoint x="409.5" y="920" as="targetPoint" />
          </mxGeometry>
        </mxCell>
        <mxCell id="ZdvCy4sVPoSEvoV_0ICH-47" value="value by row and column indexes" style="html=1;verticalAlign=bottom;startArrow=oval;startFill=1;endArrow=block;startSize=8;" parent="1" target="ZdvCy4sVPoSEvoV_0ICH-11" edge="1">
          <mxGeometry width="60" relative="1" as="geometry">
            <mxPoint x="409.75" y="940" as="sourcePoint" />
            <mxPoint x="469.75" y="940" as="targetPoint" />
          </mxGeometry>
        </mxCell>
        <mxCell id="ZdvCy4sVPoSEvoV_0ICH-48" value="ImportBtn_Click" style="html=1;verticalAlign=bottom;startArrow=oval;startFill=1;endArrow=block;startSize=8;" parent="1" edge="1">
          <mxGeometry width="60" relative="1" as="geometry">
            <mxPoint x="80.25" y="1020" as="sourcePoint" />
            <mxPoint x="409.75" y="1020" as="targetPoint" />
          </mxGeometry>
        </mxCell>
        <mxCell id="ZdvCy4sVPoSEvoV_0ICH-49" value="" style="shape=umlLifeline;participant=umlEntity;perimeter=lifelinePerimeter;whiteSpace=wrap;html=1;container=1;collapsible=0;recursiveResize=0;verticalAlign=top;spacingTop=36;outlineConnect=0;" parent="1" vertex="1">
          <mxGeometry x="960" y="50" width="40" height="1190" as="geometry" />
        </mxCell>
        <mxCell id="ZdvCy4sVPoSEvoV_0ICH-50" value="" style="html=1;points=[];perimeter=orthogonalPerimeter;" parent="ZdvCy4sVPoSEvoV_0ICH-49" vertex="1">
          <mxGeometry x="15" y="910" width="10" height="180" as="geometry" />
        </mxCell>
        <mxCell id="ZdvCy4sVPoSEvoV_0ICH-51" value="worksheet : Excel._Worksheet" style="text;html=1;align=center;verticalAlign=middle;resizable=0;points=[];autosize=1;" parent="1" vertex="1">
          <mxGeometry x="880" y="20" width="180" height="20" as="geometry" />
        </mxCell>
        <mxCell id="ZdvCy4sVPoSEvoV_0ICH-52" value="worksheet = (Excel._Warkship) workbook.AcriveSheet" style="html=1;verticalAlign=bottom;startArrow=oval;startFill=1;endArrow=block;startSize=8;" parent="1" target="ZdvCy4sVPoSEvoV_0ICH-49" edge="1">
          <mxGeometry width="60" relative="1" as="geometry">
            <mxPoint x="640" y="970" as="sourcePoint" />
            <mxPoint x="700" y="970" as="targetPoint" />
          </mxGeometry>
        </mxCell>
        <mxCell id="ZdvCy4sVPoSEvoV_0ICH-53" value="return ExcelDocument" style="html=1;verticalAlign=bottom;endArrow=open;dashed=1;endSize=8;" parent="1" target="ZdvCy4sVPoSEvoV_0ICH-3" edge="1">
          <mxGeometry x="-0.0009" relative="1" as="geometry">
            <mxPoint x="970" y="1000" as="sourcePoint" />
            <mxPoint x="890" y="1000" as="targetPoint" />
            <mxPoint as="offset" />
          </mxGeometry>
        </mxCell>
        <mxCell id="ZdvCy4sVPoSEvoV_0ICH-55" value="return DataGridView" style="html=1;verticalAlign=bottom;endArrow=open;dashed=1;endSize=8;" parent="1" target="ZdvCy4sVPoSEvoV_0ICH-11" edge="1">
          <mxGeometry relative="1" as="geometry">
            <mxPoint x="970" y="1060" as="sourcePoint" />
            <mxPoint x="890" y="1060" as="targetPoint" />
          </mxGeometry>
        </mxCell>
        <mxCell id="ZdvCy4sVPoSEvoV_0ICH-56" value="return Table" style="html=1;verticalAlign=bottom;endArrow=open;dashed=1;endSize=8;" parent="1" target="ZdvCy4sVPoSEvoV_0ICH-5" edge="1">
          <mxGeometry relative="1" as="geometry">
            <mxPoint x="640" y="1080" as="sourcePoint" />
            <mxPoint x="560" y="1080" as="targetPoint" />
          </mxGeometry>
        </mxCell>
        <mxCell id="ZdvCy4sVPoSEvoV_0ICH-57" value="return Evaluate(CellEditText)" style="html=1;verticalAlign=bottom;endArrow=open;dashed=1;endSize=8;" parent="1" target="ZdvCy4sVPoSEvoV_0ICH-11" edge="1">
          <mxGeometry relative="1" as="geometry">
            <mxPoint x="800" y="460" as="sourcePoint" />
            <mxPoint x="720" y="460" as="targetPoint" />
          </mxGeometry>
        </mxCell>
        <mxCell id="ZdvCy4sVPoSEvoV_0ICH-58" value="return updated Table" style="html=1;verticalAlign=bottom;endArrow=open;dashed=1;endSize=8;" parent="1" target="ZdvCy4sVPoSEvoV_0ICH-3" edge="1">
          <mxGeometry x="-0.0023" relative="1" as="geometry">
            <mxPoint x="630" y="490" as="sourcePoint" />
            <mxPoint x="550" y="490" as="targetPoint" />
            <mxPoint as="offset" />
          </mxGeometry>
        </mxCell>
      </root>
    </mxGraphModel>
  </diagram>
</mxfile>
